<?xml version="1.0" encoding="UTF-8"?>
<svg id="Layer_2" xmlns="http://www.w3.org/2000/svg" viewBox="0 0 799.15 798.13">
  <defs>
    <style>
      .cls-1 {
        fill: #fff;
      }
    </style>
  </defs>
  <g id="Layer_1-2" data-name="Layer_1">
    <path class="cls-1" d="M174.32,453.77l235.43,256.65c19.03,22.43,16.27,56.03-6.16,75.06s-56.03,16.27-75.06-6.16L15.45,438.03c-4.5-4.52-8.15-9.82-10.77-15.64-3.26-7.23-4.85-15.11-4.67-23.04v-.05c.18-7.91,2.12-15.69,5.68-22.76.35-.68.71-1.36,1.08-2.03,2.17-3.88,4.82-7.48,7.89-10.69L336.07,17.05c19.99-21.57,53.69-22.85,75.26-2.86s22.85,53.69,2.86,75.26l-238.96,257.81h570.67c29.41,0,53.25,23.84,53.25,53.25s-23.84,53.25-53.25,53.25H174.32Z"/>
  </g>
</svg>