<?xml version="1.0" encoding="UTF-8"?>
<svg id="Layer_2" xmlns="http://www.w3.org/2000/svg" viewBox="0 0 21 21">
  <defs>
    <style>
      .cls-1 {
        fill: #fff;
        fill-rule: evenodd;
      }
    </style>
  </defs>
  <g id="Layer_2-2" data-name="Layer_2">
    <path class="cls-1" d="M0,3C0,1.34,1.34,0,3,0h1.37c.86,0,1.61.59,1.82,1.42l1.1,4.42c.18.73-.09,1.5-.69,1.96l-1.29.97c-.14.1-.16.25-.13.35,1.14,3.11,3.59,5.55,6.7,6.7.1.04.25,0,.35-.13l.97-1.29c.45-.6,1.22-.88,1.95-.69l4.42,1.11c.83.21,1.42.96,1.42,1.82v1.37c0,1.66-1.34,3-3,3h-2.25C7.05,21,0,13.95,0,5.25v-2.25Z"/>
  </g>
</svg>