<?xml version="1.0" encoding="UTF-8"?>
<svg id="Layer_2" xmlns="http://www.w3.org/2000/svg" viewBox="0 0 800.01 725.48">
  <defs>
    <style>
      .cls-1 {
        fill: #fff;
      }
    </style>
  </defs>
  <g id="_x32_">
    <g>
      <path class="cls-1" d="M562.66,337.76l15.87-16.04s24.39-20.95,52.2-11.45c48.41,16.53,104.35-1.37,143.14-40.21,11.04-11.04,24.44-33.18,24.44-33.18,1.54-2.1,2.08-4.76,1.44-7.3l-3-12.35c-.56-2.32-2.05-4.3-4.1-5.52-2.05-1.2-4.52-1.51-6.79-.85l-95.29,26.51c-3.54.98-7.32-.34-9.47-3.3l-43.77-60.3c-1.34-1.83-1.9-4.13-1.59-6.35l8.81-64.06c.46-3.49,2.95-6.32,6.35-7.27l100.63-28c4.54-1.27,7.3-5.96,6.18-10.57l-3.98-16.19c-.54-2.3-2-4.25-4-5.47,0,0-7.89-5.23-13.62-8.18-57.15-29.52-129.13-20.36-177.05,27.59-35.4,35.4-49.27,83.89-42.77,129.93,5,35.4,2.66,54.22-12.62,70.39-1.39,1.44-5.79,5.83-12.57,12.5l71.58,69.68Z"/>
      <path class="cls-1" d="M330.29,424.33c-106.81,103.49-223.32,216.09-223.32,216.09-3.98,3.81-6.25,9.06-6.32,14.55-.07,5.47,2.1,10.77,5.96,14.65l49.9,49.9c3.91,3.88,9.18,6.03,14.67,5.96,5.49-.05,10.72-2.34,14.5-6.3l217.7-220.24-73.1-74.61Z"/>
      <path class="cls-1" d="M783.49,668.01c3.88-3.88,6.03-9.15,5.96-14.65-.05-5.49-2.34-10.72-6.3-14.53L355.34,222.5l-68.68,68.7,417.72,426.37c3.81,3.98,9.03,6.25,14.53,6.32s10.77-2.1,14.67-5.98l49.9-49.9Z"/>
      <path class="cls-1" d="M397.19,13.71c-51.51-20.09-134.81-23-183.06,25.22-37.99,37.99-93.55,93.58-93.55,93.58-19.8,19.77-1.42,39.4-16.04,54-14.62,14.62-37.99,0-51.15,13.16L5.15,247.94c-6.86,6.84-6.86,17.97,0,24.83l67.21,67.21c6.86,6.86,17.99,6.86,24.85,0l48.24-48.24c13.18-13.16-1.47-36.52,13.18-51.12,19.7-19.73,41.21-16.38,53.64-3.98l24.83,24.83,26.9,7.08,68.68-68.68-7.91-26.08c-21.9-21.92-25.03-47.29-11.3-61.01,21.24-21.24,56.32-51.93,89.18-65.09,20.95-8.37,14.62-29.22-5.47-33.98ZM304.02,124.43c-.1.07,9.15-11.38,9.33-11.52l-9.33,11.52Z"/>
    </g>
  </g>
</svg>