<?xml version="1.0" encoding="UTF-8"?>
<svg id="Layer_2" xmlns="http://www.w3.org/2000/svg" viewBox="0 0 763.33 763.67">
  <defs>
    <style>
      .cls-1 {
        fill: none;
        stroke: #fff;
        stroke-miterlimit: 333.33;
        stroke-width: 63.67px;
      }
    </style>
  </defs>
  <g id="Layer_1-2" data-name="Layer_1">
    <path class="cls-1" d="M0,572.83h588.33c43.87,0,79.48,35.46,79.67,79.33h0c0,44-35.67,79.67-79.67,79.67H0"/>
    <path class="cls-1" d="M63.33,572.83c20.9,21.17,32.84,49.59,33.33,79.33-.51,29.84-12.44,58.35-33.33,79.67"/>
    <path class="cls-1" d="M763.33,572.83H175c-44,0-79.67-35.67-79.67-79.67h0c.91-43.35,36.31-78.01,79.67-78h588.33"/>
    <path class="cls-1" d="M700,572.83c-42.58-44.58-42.58-114.76,0-159.33"/>
    <path class="cls-1" d="M540.67,228.17c0,92.67-63.67,235.33-159,166.67-95.33,66.67-159-75.33-159-166.67s95.33-133.33,159-66.67c63.67-68,159-26.33,159,66.67Z"/>
    <path class="cls-1" d="M318,31.83c33.33,0,63.67,33.33,63.67,95.33"/>
  </g>
</svg>