<?xml version="1.0" encoding="UTF-8"?>
<svg id="Layer_2" xmlns="http://www.w3.org/2000/svg" viewBox="0 0 800.16 733.44">
  <defs>
    <style>
      .cls-1 {
        fill: #fff;
      }
    </style>
  </defs>
  <g id="Layer_1-2" data-name="Layer_1">
    <path class="cls-1" d="M733.28,133.28H66.72C29.84,133.28,0,163.28,0,200v33.28h800v-33.28c0-36.72-29.84-66.72-66.72-66.72ZM333.28,66.72h133.28v33.28h66.72v-33.28c0-36.72-29.84-66.72-66.72-66.72h-133.28c-36.72,0-66.72,29.84-66.72,66.72v33.28h66.72v-33.28ZM0,666.72c0,36.72,29.84,66.72,66.72,66.72h666.72c36.72,0,66.72-29.84,66.72-66.72v-33.28H0v33.28ZM0,566.72h800v-266.72H0v266.72Z"/>
  </g>
</svg>