<?xml version="1.0" encoding="UTF-8"?>
<svg id="Layer_2" xmlns="http://www.w3.org/2000/svg" viewBox="0 0 600 666.67">
  <defs>
    <style>
      .cls-1 {
        fill: none;
        stroke: #fff;
        stroke-linejoin: round;
        stroke-width: 66.67px;
      }
    </style>
  </defs>
  <g id="Layer_1-2" data-name="Layer_1">
    <path class="cls-1" d="M430.67,363.2l111.27-133.53c9.16-10.99,13.74-16.48,16.99-22.65,2.89-5.47,5.01-11.31,6.29-17.36,1.44-6.82,1.44-13.97,1.44-28.28v-21.38c0-37.34,0-56.01-7.27-70.27-6.39-12.54-16.59-22.74-29.13-29.13-14.26-7.27-32.93-7.27-70.27-7.27H140c-37.34,0-56.01,0-70.27,7.27-12.54,6.39-22.74,16.59-29.13,29.13-7.27,14.26-7.27,32.93-7.27,70.27v21.38c0,14.3,0,21.45,1.44,28.28,1.28,6.05,3.4,11.9,6.29,17.36,3.26,6.16,7.84,11.66,16.99,22.65l111.28,133.53M346.7,306.63l198.86-255.3M253.3,306.63L54.65,51.14M118.56,133.33h363.13M466.67,466.67c0,92.05-74.62,166.67-166.67,166.67s-166.67-74.62-166.67-166.67,74.62-166.67,166.67-166.67,166.67,74.62,166.67,166.67Z"/>
  </g>
</svg>