<?xml version="1.0" encoding="UTF-8"?>
<svg id="Layer_2" xmlns="http://www.w3.org/2000/svg" viewBox="0 0 750 600">
  <defs>
    <style>
      .cls-1 {
        fill: #fff;
        fill-rule: evenodd;
      }
    </style>
  </defs>
  <g id="Layer_1-2" data-name="Layer_1">
    <path class="cls-1" d="M352.81,3.02c8.8-4.02,18.92-4.02,27.72,0l333.33,152.38c11.86,5.42,19.47,17.27,19.47,30.32s-7.61,24.89-19.47,30.32l-80.53,36.81v195.39c0,6.7-1.68,14.04-5.93,20.86-11.02,17.71-88.32,130.91-260.74,130.91s-249.71-113.19-260.74-130.91c-4.24-6.82-5.93-14.16-5.93-20.86v-195.39l-80.53-36.81c-11.86-5.42-19.47-17.27-19.47-30.32s7.61-24.89,19.47-30.32L352.81,3.02ZM166.67,283.32v156.66c16.33,22.65,77.12,93.35,200,93.35s183.67-70.7,200-93.35v-156.66l-186.14,85.09c-8.8,4.02-18.92,4.02-27.72,0l-186.14-85.09ZM113.51,185.71l33.68,15.4,219.47,100.33,219.47-100.33,33.69-15.4-253.16-115.73-253.16,115.73ZM750,283.33c0,27.61-22.39,50-50,50s-50-22.39-50-50,22.39-50,50-50,50,22.39,50,50ZM733.33,383.33c0-18.41-14.92-33.33-33.33-33.33s-33.33,14.92-33.33,33.33v183.33c0,18.41,14.92,33.33,33.33,33.33s33.33-14.92,33.33-33.33v-183.33Z"/>
  </g>
</svg>