<?xml version="1.0" encoding="UTF-8"?>
<svg id="Layer_2" xmlns="http://www.w3.org/2000/svg" viewBox="0 0 469.33 469.33">
  <defs>
    <style>
      .cls-1 {
        fill: #fff;
        fill-rule: evenodd;
      }
    </style>
  </defs>
  <g id="Layer_1-2" data-name="Layer_1">
    <g>
      <path class="cls-1" d="M320,170.67c0,47.13-38.21,85.33-85.33,85.33s-85.33-38.21-85.33-85.33,38.21-85.33,85.33-85.33,85.33,38.21,85.33,85.33ZM277.33,170.67c0,23.56-19.1,42.67-42.67,42.67s-42.67-19.1-42.67-42.67,19.1-42.67,42.67-42.67,42.67,19.1,42.67,42.67Z"/>
      <path class="cls-1" d="M234.67,0C105.07,0,0,105.07,0,234.67s105.07,234.67,234.67,234.67,234.67-105.07,234.67-234.67S364.27,0,234.67,0ZM42.67,234.67c0,44.59,15.21,85.63,40.7,118.23,36.29-47.66,92.78-75.61,152.68-75.56,59.11-.06,114.94,27.17,151.3,73.77,64.29-84.32,48.05-204.8-36.27-269.1C266.76,17.72,146.28,33.95,81.98,118.28c-25.5,33.44-39.31,74.33-39.32,116.39ZM234.67,426.67c-44.08.07-86.82-15.1-121-42.92,27.92-39.98,73.63-63.78,122.39-63.74,48.14-.04,93.33,23.16,121.37,62.29-34.45,28.73-77.9,44.44-122.75,44.37Z"/>
    </g>
  </g>
</svg>