<?xml version="1.0" encoding="UTF-8"?>
<svg id="Layer_2" xmlns="http://www.w3.org/2000/svg" viewBox="0 0 449.98 450.16">
  <defs>
    <style>
      .cls-1 {
        fill: #fff;
      }
    </style>
  </defs>
  <g id="Layer_1-2" data-name="Layer_1">
    <path class="cls-1" d="M233.59,2.44c4.45,3.1,8.16,7.04,11.97,10.87q1.29,1.28,2.61,2.59c2.38,2.37,4.75,4.74,7.12,7.11,2.56,2.56,5.13,5.12,7.7,7.67,5.61,5.59,11.21,11.18,16.81,16.77,3.5,3.49,7,6.99,10.5,10.48,9.69,9.67,19.38,19.35,29.07,29.03q.93.93,1.88,1.88c1.26,1.25,2.51,2.51,3.77,3.76.62.62,1.25,1.25,1.89,1.89.62.62,1.25,1.25,1.89,1.89,10.11,10.11,20.24,20.21,30.37,30.3,10.41,10.37,20.8,20.75,31.19,31.13,5.83,5.83,11.67,11.66,17.51,17.47,4.98,4.95,9.94,9.91,14.9,14.88,2.53,2.53,5.06,5.07,7.6,7.59,2.76,2.73,5.5,5.49,8.23,8.24.8.79,1.61,1.58,2.44,2.4,4.8,4.87,8.64,9.39,8.94,16.56-.36,4.93-1.95,8.21-5.09,11.95-4.28,3.6-8.39,5.25-14,5-7.24-1.95-11.26-5.55-16.44-10.84q-1.22-1.21-2.46-2.45c-2.71-2.7-5.4-5.42-8.09-8.14-1.94-1.94-3.88-3.88-5.83-5.82-4.18-4.18-8.35-8.36-12.51-12.55-6.02-6.06-12.05-12.11-18.09-18.15-9.79-9.81-19.58-19.62-29.35-29.44-9.49-9.54-18.99-19.08-28.5-28.6-.59-.59-1.17-1.18-1.78-1.78-2.94-2.95-5.88-5.9-8.83-8.84-24.39-24.44-48.76-48.9-73.13-73.38-3.06,1.37-5.16,2.91-7.51,5.28q-1.02,1.02-2.07,2.06c-.74.75-1.48,1.5-2.25,2.28-.79.8-1.59,1.59-2.4,2.41-2.67,2.68-5.33,5.36-7.98,8.04-1.91,1.92-3.81,3.83-5.72,5.75-4.11,4.13-8.22,8.27-12.33,12.4-6.49,6.54-13,13.07-19.5,19.6-2.23,2.23-4.45,4.47-6.68,6.7-.56.56-1.11,1.12-1.69,1.69-6.33,6.36-12.66,12.71-18.99,19.07-.58.58-1.16,1.16-1.75,1.76-9.37,9.42-18.74,18.84-28.1,28.27-9.62,9.68-19.24,19.35-28.88,29.01-5.94,5.96-11.87,11.92-17.8,17.9-4.06,4.1-8.13,8.18-12.21,12.26-2.35,2.35-4.7,4.71-7.03,7.08-2.54,2.57-5.09,5.12-7.65,7.67q-1.09,1.12-2.21,2.27c-4.56,4.49-8.82,7.47-15.25,8.48-6.28-.38-10.73-2.22-15-7-2.42-4.42-3.4-8.56-2.62-13.56,2.59-8.58,11.07-15.03,17.23-21.2.84-.85,1.68-1.69,2.55-2.56,2.32-2.33,4.63-4.65,6.95-6.97,2.51-2.51,5.01-5.03,7.52-7.55,6.04-6.06,12.08-12.12,18.12-18.17,1.71-1.71,3.42-3.42,5.12-5.13,10.62-10.64,21.24-21.28,31.86-31.92,2.45-2.46,4.91-4.92,7.36-7.37.61-.61,1.22-1.22,1.85-1.85,9.9-9.91,19.78-19.83,29.66-29.75,10.16-10.2,20.32-20.39,30.5-30.57,5.71-5.71,11.41-11.43,17.11-17.15,4.84-4.87,9.7-9.74,14.56-14.59,2.48-2.48,4.96-4.95,7.42-7.44,2.68-2.7,5.37-5.38,8.06-8.06.77-.79,1.55-1.57,2.34-2.39,7.18-7.08,15.34-11.74,25.09-6.21Z"/>
    <path class="cls-1" d="M70.89,256.91c4.97,2.31,7.43,5.22,10,10,.57,3.41.53,6.76.5,10.21,0,1.01.01,2.03.02,3.07,0,2.2,0,4.39,0,6.59-.01,3.49,0,6.97.02,10.46.03,6.16.03,12.31.03,18.46,0,9.83.01,19.65.06,29.48,0,3.42,0,6.83,0,10.25.02,17.34,1.18,33.4,13.58,46.86,11.2,10.01,24.33,13.78,39.08,13.76q1.21,0,2.44,0c2.68,0,5.36.01,8.05.01,1.93,0,3.86,0,5.79.02,5.23.01,10.46.02,15.7.02,3.27,0,6.55,0,9.82.01,10.26.01,20.51.02,30.77.03,11.81,0,23.62.02,35.44.05,9.15.02,18.3.03,27.44.03,5.46,0,10.91,0,16.37.02,5.14.02,10.27.02,15.41,0,1.88,0,3.75,0,5.63.01,17.04.08,30.76-1.66,45.15-11.62,11.03-11.03,15.93-24.23,16.02-39.65q0-1.42-.01-2.87c0-1.03,0-2.05.01-3.11,0-2.21,0-4.42,0-6.63,0-3.5.01-6.99.03-10.49.05-9.94.07-19.87.08-29.81,0-6.09.03-12.19.07-18.28,0-2.32.01-4.63,0-6.95,0-3.24.01-6.47.03-9.71q-.01-1.43-.02-2.89c.07-5.63.76-8.9,4.54-13.36,3.82-3.63,6.88-4.31,12-4.5,5.12.19,8.18.87,12,4.5,4.65,5.4,4.57,10.03,4.52,16.98q.01,1.65.02,3.32c.02,3.62,0,7.25,0,10.87,0,2.53,0,5.06.01,7.59,0,5.31,0,10.62-.02,15.93-.02,6.1-.01,12.2,0,18.3.02,5.9.02,11.81,0,17.71,0,2.49,0,4.99,0,7.48.07,23.52-2.61,43.32-18.55,61.81-.52.66-1.04,1.33-1.57,2.01-12.14,14.99-31,24.19-50.02,26.28-9.82.83-19.59.86-29.44.86-1.89,0-3.77,0-5.66.01-5.09,0-10.18.01-15.27.01-3.19,0-6.38,0-9.57,0-11.15,0-22.3.01-33.45.01-10.36,0-20.71,0-31.07.03-8.93.01-17.85.02-26.78.02-5.32,0-10.63,0-15.95.01-5,0-10.01,0-15.01,0-1.82,0-3.65,0-5.47,0-27.42.09-51.89-4.44-72.36-23.87-3.53-3.51-6.55-7.3-9.39-11.38-.54-.78-1.08-1.55-1.64-2.36-8.02-12.42-11.66-26.48-11.65-41.11q-.01-1.68-.02-3.4c-.02-3.69-.02-7.39-.03-11.08,0-2.57-.01-5.15-.02-7.72-.01-5.39-.02-10.78-.01-16.16,0-6.22-.02-12.44-.05-18.66-.03-6-.04-12-.04-18,0-2.55-.01-5.09-.03-7.64-.02-3.56-.01-7.11,0-10.67-.01-1.05-.02-2.1-.03-3.18.05-6.01.54-9.43,4.52-14.02,5.27-5.01,11.11-4.93,18-4Z"/>
  </g>
</svg>