<?xml version="1.0" encoding="UTF-8"?>
<svg id="Layer_2" xmlns="http://www.w3.org/2000/svg" viewBox="0 0 800 800">
  <defs>
    <style>
      .cls-1 {
        fill: #fff;
      }
    </style>
  </defs>
  <g id="Layer_1-2" data-name="Layer_1">
    <path class="cls-1" d="M352.51,76.78C401.67,27.62,468.35,0,537.87,0c144.77,0,262.13,117.36,262.13,262.13,0,69.52-27.62,136.2-76.77,185.36l-102.52,102.51-70.71-70.71,102.51-102.51c30.4-30.41,47.49-71.64,47.49-114.64,0-89.54-72.59-162.13-162.13-162.13-43,0-84.24,17.08-114.65,47.49l-102.51,102.51-70.71-70.71,102.51-102.51Z"/>
    <path class="cls-1" d="M376.78,652.51l102.51-102.51,70.71,70.71-102.51,102.52c-49.16,49.16-115.83,76.77-185.36,76.77C117.36,800,0,682.64,0,537.87c0-69.52,27.62-136.2,76.78-185.36l102.51-102.51,70.71,70.71-102.51,102.51c-30.41,30.41-47.49,71.64-47.49,114.65,0,89.54,72.59,162.13,162.13,162.13,43,0,84.24-17.08,114.64-47.49Z"/>
    <path class="cls-1" d="M285.36,585.35l300-300-70.71-70.71-300,300,70.71,70.71Z"/>
  </g>
</svg>