<?xml version="1.0" encoding="UTF-8"?>
<svg id="Layer_2" xmlns="http://www.w3.org/2000/svg" viewBox="0 0 800 800">
  <defs>
    <style>
      .cls-1 {
        fill: #fff;
      }
    </style>
  </defs>
  <g id="Layer_1-2" data-name="Layer_1">
    <path class="cls-1" d="M727.63,0H72.37C32.4,0,0,32.4,0,72.37v655.26c0,39.97,32.4,72.37,72.37,72.37h655.26c39.97,0,72.37-32.4,72.37-72.37V72.37c0-39.97-32.4-72.37-72.37-72.37ZM247.55,690.77c0,11.63-9.43,21.06-21.06,21.06h-89.65c-11.63,0-21.06-9.43-21.06-21.06v-375.79c0-11.63,9.43-21.06,21.06-21.06h89.65c11.63,0,21.06,9.43,21.06,21.06v375.79ZM181.67,258.5c-47.03,0-85.16-38.13-85.16-85.16s38.13-85.16,85.16-85.16,85.16,38.13,85.16,85.16-38.13,85.16-85.16,85.16ZM716.04,692.47c0,10.69-8.67,19.36-19.36,19.36h-96.2c-10.69,0-19.36-8.67-19.36-19.36v-176.27c0-26.3,7.71-115.23-68.72-115.23-59.29,0-71.31,60.87-73.73,88.19v203.31c0,10.69-8.67,19.36-19.36,19.36h-93.04c-10.69,0-19.36-8.67-19.36-19.36v-379.19c0-10.69,8.67-19.36,19.36-19.36h93.04c10.69,0,19.36,8.67,19.36,19.36v32.79c21.98-32.99,54.65-58.45,124.21-58.45,154.04,0,153.15,143.91,153.15,222.98v181.88h0Z"/>
  </g>
</svg>