<?xml version="1.0" encoding="UTF-8"?>
<svg id="Layer_2" xmlns="http://www.w3.org/2000/svg" viewBox="0 0 666.67 666.67">
  <defs>
    <style>
      .cls-1 {
        fill: #fff;
        fill-rule: evenodd;
      }
    </style>
  </defs>
  <g id="Layer_1-2" data-name="Layer_1">
    <path class="cls-1" d="M100,0h66.67c18.41,0,33.33,14.92,33.33,33.33,0,17.09-12.87,31.18-29.45,33.11l-3.89.22h-66.67c-17.09,0-31.18,12.87-33.11,29.45l-.22,3.89v466.67c0,17.09,12.87,31.18,29.45,33.11l3.89.22h466.67c17.09,0,31.18-12.87,33.11-29.45l.22-3.89v-66.67c0-18.41,14.92-33.33,33.33-33.33,17.09,0,31.18,12.87,33.11,29.45l.22,3.89v66.67c0,53.26-41.63,96.79-94.12,99.83l-5.88.17H100c-53.26,0-96.79-41.63-99.83-94.12l-.17-5.88V100C0,46.74,41.63,3.21,94.12.17l5.88-.17h66.67-66.67ZM633.33,0l2.7.1,3.99.57h0l3.71.98h0l3.7,1.46,3.25,1.74h0l3.2,2.23,3.01,2.67h0l3.22,3.73h0l2.39,3.71,1.03,2.03h0l1.13,2.71h0l.8,2.52h0l.96,4.93h0l.23,3.94h0v200c0,18.41-14.92,33.33-33.33,33.33s-33.33-14.92-33.33-33.33v-119.53l-209.76,209.77c-12.02,12.02-30.92,12.94-44,2.77l-3.14-2.77c-12.02-12.02-12.94-30.92-2.77-44l2.77-3.14,209.7-209.76h-119.47c-18.41,0-33.33-14.92-33.33-33.33S414.92,0,433.33,0h200Z"/>
  </g>
</svg>