<?xml version="1.0" encoding="UTF-8"?>
<svg id="Layer_2" xmlns="http://www.w3.org/2000/svg" viewBox="0 0 322.01 328.24">
  <defs>
    <style>
      .cls-1 {
        fill: #fff;
      }
    </style>
  </defs>
  <g id="Layer_1-2" data-name="Layer_1">
    <path class="cls-1" d="M190.92,4.87c1.06.37,2.11.75,3.2,1.13,11.87,4.6,21.71,10.99,30.8,19.87.89.85,1.77,1.69,2.69,2.56.76.8,1.53,1.61,2.31,2.44.52.52,1.04,1.05,1.57,1.59,7.73,8.22,12.82,18.2,16.8,28.66.24.62.48,1.25.72,1.89,6.66,18.46,6.52,41.43-.1,59.86-.37,1.06-.75,2.11-1.13,3.2-4.6,11.87-10.99,21.71-19.87,30.8-.85.89-1.69,1.77-2.56,2.69-.8.76-1.61,1.53-2.44,2.31-.52.52-1.05,1.04-1.59,1.57-8.22,7.73-18.2,12.82-28.66,16.8-.62.24-1.25.48-1.89.72-18.46,6.66-41.43,6.52-59.86-.1-1.06-.37-2.11-.75-3.2-1.13-11.87-4.6-21.71-10.99-30.8-19.87-.89-.85-1.77-1.69-2.69-2.56q-1.14-1.21-2.31-2.44c-.52-.52-1.04-1.05-1.57-1.59-7.73-8.22-12.82-18.2-16.8-28.66-.24-.62-.48-1.25-.72-1.89-6.66-18.46-6.52-41.43.1-59.86.37-1.06.75-2.11,1.13-3.2,9.03-23.32,26.11-41.55,48.84-51.96,21-8.7,46.5-10.57,68.03-2.84ZM112.2,45.49c-13.59,14.15-18.8,31.12-18.63,50.3.47,18.82,8.36,34.49,21.88,47.51,13.99,12.18,31.5,18.46,50.07,17.35,19.1-2.07,36-10.23,48.37-25.16,12.86-17.6,16.18-35.85,13.6-57.22-3.77-17.44-15.02-32.42-29.57-42.41-28.58-16.92-61.45-13.1-85.72,9.62Z"/>
    <path class="cls-1" d="M160.29,216.49q1.25,0,2.52,0c28.09.08,53.85,6.06,79.1,18.37.65.31,1.3.62,1.96.94,31.25,15.21,64.13,43.46,78.04,76.06.4,4.48-.46,8.09-2.75,11.94-3.77,3.46-6.04,4.08-11.19,4-4.3-.36-7.17-2.93-10.06-5.94-1.73-2.38-3.17-4.89-4.62-7.44-4.98-8.31-10.79-15.48-17.38-22.56q-.69-.75-1.39-1.51c-28.7-30.78-70.04-47.03-111.61-48.49-38.01-.4-75.25,13.14-104,38-.82.69-1.63,1.39-2.47,2.11-13.87,12.11-24.78,26.53-34.15,42.33-2.66,3.03-5.94,3.52-9.82,3.94-4.34-.46-6.28-1.54-9.56-4.38-3.11-4.32-3.26-7.49-2.6-12.55,1.08-4.39,3.56-7.75,6.17-11.38q.82-1.18,1.66-2.39c18.41-26.3,41.22-46.93,69.78-61.68q.92-.48,1.87-.96c25.08-12.75,52.49-18.48,80.51-18.41Z"/>
  </g>
</svg>