<?xml version="1.0" encoding="UTF-8"?>
<svg id="Layer_2" xmlns="http://www.w3.org/2000/svg" viewBox="0 0 352.79 417.36">
  <defs>
    <style>
      .cls-1 {
        fill: #fff;
      }
    </style>
  </defs>
  <g id="Layer_1-2" data-name="Layer_1">
    <path class="cls-1" d="M72.51,209.38c4.01,3.31,6.5,6.21,7.28,11.46.2,6.4-.19,10.36-4.45,15.23-.65.67-1.29,1.34-1.96,2.03-23.56,24.94-38.95,57.89-39.31,92.56-.03.92-.06,1.84-.09,2.79-.07,7.14,1.63,10.58,6.45,15.92,23.03,21.4,58.95,27.51,88.95,31.73.79.11,1.58.23,2.4.34,54.8,7.55,128.78,5.15,175.7-27.84q7.56-5.97,11.19-14.57c.74-36.35-12.02-70.75-36.29-97.94-1.28-1.28-2.57-2.56-3.88-3.81-4.31-4.24-6.26-7.98-6.62-14.06.18-5.41,1.89-9.12,5.5-13.12,4.44-3.38,8.83-3.38,14.22-3.5,12.6,2.25,23.48,19.63,30.39,29.47,19.54,28.48,30.44,61.81,30.7,96.34.03,1.25.06,2.51.09,3.8.11,15.89-5.95,26.33-16.78,37.63-4.53,4.34-9.33,7.91-14.62,11.25-1,.64-2.01,1.27-3.04,1.93-36.53,22.01-84.26,30.1-126.39,30.27q-1.73.01-3.49.02c-3.69.02-7.38.02-11.08.03-1.26,0-2.52,0-3.82,0-17.94-.02-35.46-.31-53.18-3.25q-1.65-.26-3.33-.52c-37.49-5.94-84.58-16.94-108.74-49.24C1.45,354.07-.13,345.54,0,333.23c.01-1.29.02-2.58.03-3.9.73-45.14,20.92-86.13,51.89-118.23,5.84-4.74,14.02-5.64,20.59-1.73Z"/>
    <path class="cls-1" d="M209.38,5.11c.68.21,1.36.43,2.07.65,14.23,4.58,26.62,11.54,37.93,21.35.81.66,1.62,1.33,2.45,2.01,20.19,17.15,33.36,42.75,36.55,68.99.31,4.86.38,9.7.38,14.56,0,.66,0,1.32,0,2-.04,10.98-.99,21-4.37,31.44-.21.68-.43,1.36-.65,2.07-4.58,14.23-11.54,26.62-21.35,37.93-.66.81-1.33,1.62-2.01,2.45-17.15,20.19-42.75,33.36-68.99,36.55-4.86.31-9.7.38-14.56.38q-.99,0-2,0c-10.98-.04-21-.99-31.44-4.37-.68-.21-1.36-.43-2.07-.65-14.23-4.58-26.62-11.54-37.93-21.35-.81-.66-1.62-1.33-2.45-2.01-20.19-17.15-33.36-42.75-36.55-68.99-.31-4.86-.38-9.7-.38-14.56,0-.66,0-1.32,0-2,.04-10.98.99-21,4.37-31.44q.32-1.02.65-2.07c4.58-14.23,11.54-26.62,21.35-37.93.66-.81,1.33-1.62,2.01-2.45,14.16-16.67,33.2-27.43,53.99-33.55,1.11-.34,2.21-.68,3.35-1.03,18.79-4.75,41.22-3.94,59.65,2.03ZM121.25,55.34c-14.63,14.15-23.79,33.53-24.16,53.98-.13,20.41,4.77,38.99,18.29,54.79.47.63.95,1.25,1.43,1.9,10.18,12.84,27.69,22.51,43.66,25.66,23.03,2.58,44.38-.74,63.4-14.62,1.18-.97,2.34-1.95,3.5-2.94.64-.5,1.28-.99,1.93-1.5,13.85-11.2,23.78-29.83,26.07-47.5,1.97-24.37-3.51-46.08-19.32-65.04-15.36-16.97-35.78-25.61-58.43-26.91-21.02-.51-41.03,8.17-56.39,22.17Z"/>
  </g>
</svg>