<?xml version="1.0" encoding="UTF-8"?>
<svg id="Layer_2" xmlns="http://www.w3.org/2000/svg" viewBox="0 0 800 600">
  <defs>
    <style>
      .cls-1 {
        fill: #fff;
      }
    </style>
  </defs>
  <g id="Layer_1-2" data-name="Layer_1">
    <path class="cls-1" d="M750,350c0-125.39-77-232.69-186.23-277.53l-63.77,127.53V25c0-13.81-11.19-25-25-25h-150c-13.81,0-25,11.19-25,25v175l-63.77-127.53C127,117.31,50,224.61,50,350v100h700v-100ZM775,500H25c-13.81,0-25,11.19-25,25v50c0,13.81,11.19,25,25,25h750c13.81,0,25-11.19,25-25v-50c0-13.81-11.19-25-25-25Z"/>
  </g>
</svg>