<?xml version="1.0" encoding="UTF-8"?>
<svg id="Layer_2" xmlns="http://www.w3.org/2000/svg" viewBox="0 0 733.33 733.33">
  <defs>
    <style>
      .cls-1 {
        fill: #fff;
      }
    </style>
  </defs>
  <g id="Layer_1-2" data-name="Layer_1">
    <path class="cls-1" d="M733.33,366.67c0,202.5-164.16,366.67-366.67,366.67S0,569.17,0,366.67,164.16,0,366.67,0s366.67,164.16,366.67,366.67ZM66.89,366.67c0,165.56,134.21,299.77,299.77,299.77s299.77-134.21,299.77-299.77S532.23,66.89,366.67,66.89,66.89,201.11,66.89,366.67Z"/>
    <path class="cls-1" d="M366.67,133.33c-18.41,0-33.33,14.92-33.33,33.33v215.56s0,8.69,4.22,15.23c2.83,5.54,7.23,10.36,13.02,13.7l153.99,88.91c15.94,9.2,36.33,3.74,45.53-12.2,9.2-15.94,3.74-36.33-12.2-45.53l-137.91-79.62v-196.04c0-18.41-14.92-33.33-33.33-33.33Z"/>
  </g>
</svg>