<?xml version="1.0" encoding="UTF-8"?>
<svg id="Layer_2" xmlns="http://www.w3.org/2000/svg" viewBox="0 0 733.33 733.33">
  <defs>
    <style>
      .cls-1 {
        fill: #fff;
        fill-rule: evenodd;
      }
    </style>
  </defs>
  <g id="Layer_1-2" data-name="Layer_1">
    <path class="cls-1" d="M66.67,0C29.85,0,0,29.85,0,66.67v66.67c0,36.82,29.85,66.67,66.67,66.67h66.67c36.82,0,66.67-29.85,66.67-66.67v-66.67C200,29.85,170.15,0,133.33,0h-66.67ZM133.33,66.67h-66.67v66.67h66.67v-66.67Z"/>
    <path class="cls-1" d="M66.67,266.67c-36.82,0-66.67,29.85-66.67,66.67v66.67c0,36.82,29.85,66.67,66.67,66.67h66.67c36.82,0,66.67-29.85,66.67-66.67v-66.67c0-36.82-29.85-66.67-66.67-66.67h-66.67ZM133.33,333.33h-66.67v66.67h66.67v-66.67Z"/>
    <path class="cls-1" d="M0,600c0-36.82,29.85-66.67,66.67-66.67h66.67c36.82,0,66.67,29.85,66.67,66.67v66.67c0,36.82-29.85,66.67-66.67,66.67h-66.67c-36.82,0-66.67-29.85-66.67-66.67v-66.67ZM66.67,600h66.67v66.67h-66.67v-66.67Z"/>
    <path class="cls-1" d="M333.33,0c-36.82,0-66.67,29.85-66.67,66.67v66.67c0,36.82,29.85,66.67,66.67,66.67h66.67c36.82,0,66.67-29.85,66.67-66.67v-66.67c0-36.82-29.85-66.67-66.67-66.67h-66.67ZM400,66.67h-66.67v66.67h66.67v-66.67Z"/>
    <path class="cls-1" d="M266.67,333.33c0-36.82,29.85-66.67,66.67-66.67h66.67c36.82,0,66.67,29.85,66.67,66.67v66.67c0,36.82-29.85,66.67-66.67,66.67h-66.67c-36.82,0-66.67-29.85-66.67-66.67v-66.67ZM333.33,333.33h66.67v66.67h-66.67v-66.67Z"/>
    <path class="cls-1" d="M333.33,533.33c-36.82,0-66.67,29.85-66.67,66.67v66.67c0,36.82,29.85,66.67,66.67,66.67h66.67c36.82,0,66.67-29.85,66.67-66.67v-66.67c0-36.82-29.85-66.67-66.67-66.67h-66.67ZM400,600h-66.67v66.67h66.67v-66.67Z"/>
    <path class="cls-1" d="M533.33,66.67c0-36.82,29.85-66.67,66.67-66.67h66.67c36.82,0,66.67,29.85,66.67,66.67v66.67c0,36.82-29.85,66.67-66.67,66.67h-66.67c-36.82,0-66.67-29.85-66.67-66.67v-66.67ZM600,66.67h66.67v66.67h-66.67v-66.67Z"/>
    <path class="cls-1" d="M600,266.67c-36.82,0-66.67,29.85-66.67,66.67v66.67c0,36.82,29.85,66.67,66.67,66.67h66.67c36.82,0,66.67-29.85,66.67-66.67v-66.67c0-36.82-29.85-66.67-66.67-66.67h-66.67ZM666.67,333.33h-66.67v66.67h66.67v-66.67Z"/>
    <path class="cls-1" d="M533.33,600c0-36.82,29.85-66.67,66.67-66.67h66.67c36.82,0,66.67,29.85,66.67,66.67v66.67c0,36.82-29.85,66.67-66.67,66.67h-66.67c-36.82,0-66.67-29.85-66.67-66.67v-66.67ZM600,600h66.67v66.67h-66.67v-66.67Z"/>
  </g>
</svg>